<svg xmlns="http://www.w3.org/2000/svg" xmlns:xlink="http://www.w3.org/1999/xlink" width="388" zoomAndPan="magnify" viewBox="0 0 291 220.499993" height="294" preserveAspectRatio="xMidYMid meet" version="1.0"><defs><clipPath id="05c4ae34f8"><path d="M 0.328125 0 L 290.667969 0 L 290.667969 220 L 0.328125 220 Z M 0.328125 0 " clip-rule="nonzero"/></clipPath><clipPath id="835c520950"><path d="M 0.328125 0 L 290.667969 0 L 290.667969 219.820312 L 0.328125 219.820312 Z M 0.328125 0 " clip-rule="nonzero"/></clipPath><clipPath id="702e8770a6"><path d="M 101.992188 109.765625 L 173 109.765625 L 173 181 L 101.992188 181 Z M 101.992188 109.765625 " clip-rule="nonzero"/></clipPath><clipPath id="32286de229"><path d="M 151.179688 159 L 195.515625 159 L 195.515625 203.289062 L 151.179688 203.289062 Z M 151.179688 159 " clip-rule="nonzero"/></clipPath><clipPath id="ac62a0c31b"><rect x="0" width="291" y="0" height="220"/></clipPath></defs><g clip-path="url(#05c4ae34f8)"><path fill="#ffffff" d="M 0.328125 0 L 290.671875 0 L 290.671875 220 L 0.328125 220 Z M 0.328125 0 " fill-opacity="1" fill-rule="nonzero"/><g transform="matrix(1, 0, 0, 1, 0.000000000000000056, 0)"><g clip-path="url(#ac62a0c31b)"><g clip-path="url(#835c520950)"><path fill="#0066cc" d="M 180.753906 0 L 0.4375 0 L 0.4375 219.511719 L 25.917969 219.511719 L 25.917969 25.484375 L 180.753906 25.484375 C 227.21875 25.484375 265.035156 63.285156 265.035156 109.761719 C 265.035156 142.09375 246.746094 170.222656 219.964844 184.355469 L 219.964844 112.210938 L 202.324219 98.988281 L 202.324219 65.660156 L 176.824219 65.660156 L 176.824219 79.867188 L 136.652344 49.726562 L 53.351562 112.210938 L 53.351562 219.511719 L 180.753906 219.511719 C 241.273438 219.511719 290.503906 170.28125 290.503906 109.761719 C 290.503906 49.242188 241.273438 0 180.753906 0 Z M 194.464844 192.910156 C 189.992188 193.652344 185.410156 194.027344 180.742188 194.027344 L 78.835938 194.027344 L 78.835938 124.9375 L 136.652344 81.574219 L 194.464844 124.9375 Z M 194.464844 192.910156 " fill-opacity="1" fill-rule="nonzero"/></g><g clip-path="url(#702e8770a6)"><path fill="#0066cc" d="M 153.234375 129.429688 C 157.644531 133.824219 159.835938 139.113281 159.824219 145.277344 C 159.84375 151.433594 157.664062 156.679688 153.292969 161.007812 L 153.234375 161.066406 C 148.90625 165.433594 143.660156 167.613281 137.503906 167.597656 C 131.339844 167.605469 126.050781 165.417969 121.65625 161.007812 C 117.320312 156.679688 115.140625 151.433594 115.117188 145.277344 C 115.140625 139.113281 117.320312 133.832031 121.65625 129.429688 C 126.058594 125.09375 131.339844 122.914062 137.503906 122.894531 C 143.660156 122.914062 148.90625 125.09375 153.234375 129.429688 Z M 172.949219 145.277344 C 172.984375 135.476562 169.515625 127.089844 162.550781 120.113281 C 155.648438 113.230469 147.304688 109.78125 137.503906 109.765625 C 127.722656 109.78125 119.351562 113.230469 112.402344 120.113281 L 112.34375 120.171875 C 105.457031 127.125 102.007812 135.496094 101.992188 145.277344 C 102.007812 155.074219 105.457031 163.421875 112.34375 170.320312 C 119.316406 177.289062 127.703125 180.757812 137.503906 180.722656 C 147.285156 180.746094 155.640625 177.28125 162.550781 170.320312 C 169.507812 163.414062 172.976562 155.058594 172.949219 145.277344 " fill-opacity="1" fill-rule="nonzero"/></g><g clip-path="url(#32286de229)"><path fill="#0066cc" d="M 196.03125 197.332031 C 196.058594 195.507812 195.414062 193.945312 194.128906 192.644531 L 162.832031 161.292969 C 161.5625 160.039062 160.027344 159.402344 158.207031 159.386719 C 156.382812 159.402344 154.832031 160.039062 153.519531 161.292969 C 152.265625 162.601562 151.628906 164.164062 151.613281 165.976562 C 151.628906 167.800781 152.265625 169.335938 153.519531 170.605469 L 184.8125 201.957031 C 186.117188 203.253906 187.679688 203.886719 189.492188 203.863281 C 191.3125 203.886719 192.859375 203.253906 194.128906 201.957031 C 195.414062 200.6875 196.058594 199.144531 196.03125 197.332031 " fill-opacity="1" fill-rule="nonzero"/></g></g></g></g></svg>